<?xml version="1.0" encoding="UTF-8" standalone="no"?>
<!-- Created with Inkscape (http://www.inkscape.org/) -->

<svg
   xmlns:dc="http://purl.org/dc/elements/1.1/"
   xmlns:cc="http://creativecommons.org/ns#"
   xmlns:rdf="http://www.w3.org/1999/02/22-rdf-syntax-ns#"
   xmlns:svg="http://www.w3.org/2000/svg"
   xmlns="http://www.w3.org/2000/svg"
   xmlns:xlink="http://www.w3.org/1999/xlink"
   version="1.1"
   width="474.86838"
   height="474.85999"
   id="svg3859">
  <defs
     id="defs3861">
    <radialGradient
       cx="0"
       cy="0"
       r="1"
       fx="0"
       fy="0"
       id="radialGradient3704-4"
       xlink:href="#radialGradient370-0"
       gradientUnits="userSpaceOnUse"
       gradientTransform="matrix(24.567145,0,0,24.567145,280.39298,409.67912)" />
    <radialGradient
       cx="0"
       cy="0"
       r="1"
       fx="0"
       fy="0"
       id="radialGradient370-0"
       gradientUnits="userSpaceOnUse"
       gradientTransform="matrix(2.932785,0,0,-2.932785,540.47893,809.8177)">
      <stop
         id="stop372-9"
         style="stop-color:#ffffff;stop-opacity:1"
         offset="0" />
      <stop
         id="stop374-4"
         style="stop-color:#be372a;stop-opacity:1"
         offset="0.65730298" />
      <stop
         id="stop376-8"
         style="stop-color:#a62026;stop-opacity:1"
         offset="1" />
    </radialGradient>
  </defs>
  <metadata
     id="metadata3864">
    <rdf:RDF>
      <cc:Work
         rdf:about="">
        <dc:format>image/svg+xml</dc:format>
        <dc:type
           rdf:resource="http://purl.org/dc/dcmitype/StillImage" />
        <dc:title></dc:title>
      </cc:Work>
    </rdf:RDF>
  </metadata>
  <g
     transform="translate(-112.56581,-294.93218)"
     id="layer1">
    <path
       d="m 587.43419,769.79218 -474.86838,0 0,-474.86 474.86838,0 0,474.86 z"
       id="path260"
       style="fill:#00aaaf;fill-opacity:1;fill-rule:nonzero;stroke:none" />
    <path
       d="m 566.03248,720.36529 c -2.11931,1.7256 -4.44804,3.09939 -6.99457,4.12973 -2.40411,0.92981 -4.8585,1.39891 -7.36314,1.39891 -0.60312,0.49423 -0.91306,1.0806 -0.91306,1.75911 0,0.38534 0.0754,0.74554 0.21779,1.06385 0.28481,0.53612 0.67014,0.95495 1.14761,1.23975 0.49423,0.27644 1.10573,0.41884 1.86801,0.41884 l 0.68689,0 0.54449,0 c 0.24292,-0.0754 0.50261,-0.10888 0.77066,-0.13403 0.27644,-0.0168 0.51098,-0.0419 0.70365,-0.0754 0.20941,-0.0335 0.52773,-0.14241 0.99683,-0.30994 1.29001,-0.31832 2.48788,-0.6869 3.59361,-1.10573 l 1.39892,-0.57799 1.7256,-0.61988 c 0.78742,-0.11725 1.32353,0.0168 1.61672,0.41884 l 0.10887,0.57799 c 0,0.5026 -0.30995,0.94657 -0.92145,1.34027 -3.93706,2.46276 -8.0249,3.68577 -12.26352,3.68577 l -1.01359,0 -1.02196,0 c -1.07222,-0.1005 -2.1947,-0.47748 -3.33394,-1.13087 -1.07223,-0.54448 -1.82613,-1.42403 -2.31198,-2.63866 l -0.41883,-1.25651 -0.11725,-1.5497 c 0,-0.645 0.0419,-1.10573 0.11725,-1.39892 0.0335,-0.40207 0.19266,-0.8963 0.47747,-1.50781 0.8628,-2.6973 2.54653,-5.19356 5.05116,-7.48879 2.50465,-2.31197 5.05955,-4.17998 7.64797,-5.61241 l 3.21666,-1.40728 1.98529,-0.53612 1.60832,-0.15916 c 1.60834,0 3.20829,0.33507 4.78311,1.01359 1.07223,0.54449 1.60834,1.44917 1.60834,2.73919 l -0.20105,1.56645 c -0.51097,1.34866 -1.23975,2.49627 -2.20307,3.41771 l -1.49944,1.49942 -1.29839,1.23976 z m -2.15282,-3.9957 0.59475,-0.69526 0.96333,-1.18112 c 0.2178,-0.2178 0.34345,-0.43559 0.37695,-0.69527 0,-0.28481 -0.51935,-0.4356 -1.55808,-0.4356 l -1.7256,0.59475 -0.85442,0.31832 -0.75392,0.3267 c -0.5026,0.28481 -1.01357,0.61987 -1.53293,0.96332 -0.51937,0.36858 -1.04709,0.77065 -1.57483,1.23975 -1.01359,0.82093 -1.75911,1.78425 -2.27009,2.84809 -0.17591,0.39371 -0.1005,0.6115 0.20942,0.64501 l 0.87117,0 c 2.60516,-0.8628 5.02604,-2.1612 7.25425,-3.92869 m -34.27422,-1.58822 c 0.29318,0.10887 1.48268,-0.36858 3.58525,-1.44918 2.0858,-1.0806 3.56847,-1.71723 4.43966,-1.93502 l 2.09417,-0.47748 1.81775,-0.54448 1.9434,-0.2178 2.15283,0.16753 c 0.24292,0.1005 0.4691,0.36858 0.70365,0.81255 l 0.0921,1.18112 c -0.1005,0.64501 -0.36857,1.10572 -0.79578,1.39053 -1.61672,0.54449 -3.04075,0.92144 -4.28052,1.13924 -1.23975,0.21779 -2.58002,0.7539 -4.05433,1.61671 l -1.8345,1.12248 -1.77587,1.0806 c -1.21462,0.68688 -2.28685,1.5832 -3.21666,2.6973 l -2.09419,2.47951 -1.93502,2.47951 c -1.21463,1.61671 -2.37061,3.33394 -3.44284,5.16008 -0.35181,0.46908 -0.87955,0.78741 -1.55806,0.92143 l -1.81775,0.16754 c -0.36858,0.0754 -0.62826,-0.0168 -0.81255,-0.26806 l -0.41884,-0.76228 -0.27642,-1.19787 0.21778,-1.13086 0.30994,-1.03034 0.37696,-1.1895 1.23138,-3.14965 1.27326,-3.1999 c 0.32669,-0.92983 0.63663,-1.96854 0.96333,-3.08264 0.5026,-1.6586 0.8293,-2.85646 1.0052,-3.56848 0.3267,-0.83768 0.54448,-1.74237 0.65338,-2.71407 0,-0.8293 0.37695,-1.65858 1.13087,-2.49626 0.33506,-0.31832 1.02196,-0.59475 2.11093,-0.81255 l 0.59475,0 c 0.63663,0 1.14762,0.20105 1.51619,0.61989 0.3937,0.7539 0.58636,1.5078 0.58636,2.26171 l -0.20103,0.98007 -0.28482,1.39892 0,1.5497 m -17.4797,3.68325 -0.18428,1.8345 0,1.93502 0,3.19991 0.18428,7.1621 c 0,0.6115 -0.30993,0.98845 -0.90468,1.13087 l -0.79579,0.20941 -0.64501,-0.15916 c -0.41884,-0.20942 -0.81254,-0.49423 -1.17274,-0.84605 -0.94658,-0.98008 -1.42405,-2.27847 -1.42405,-3.96219 l -0.18429,-2.4125 0,-2.01879 0,-2.47951 0,-1.13924 c 0,-0.46072 0.067,-0.9717 0.18429,-1.54969 -0.10888,-0.32669 -0.27643,-0.48586 -0.48585,-0.48586 l -0.47748,0.15917 c -2.57165,2.15282 -4.84175,4.2135 -6.8019,6.18202 -2.60516,2.59679 -4.85012,4.62396 -6.70138,6.08151 -1.43242,1.21463 -3.024,1.80937 -4.76635,1.80937 l -1.13087,-0.0503 -1.29001,-0.31833 c -1.17275,-0.32669 -2.1612,-1.03871 -2.94024,-2.14444 -0.40208,-0.4691 -0.71202,-0.9717 -0.92981,-1.53293 -0.24292,-0.55287 -0.35182,-1.1895 -0.35182,-1.90153 0,-1.65021 0.0754,-2.98211 0.24292,-4.02082 0.15916,-1.03872 0.5026,-2.22822 1.03871,-3.56849 0.53612,-1.34028 1.07223,-2.53815 1.59158,-3.602 0.51099,-1.03871 1.0806,-2.06068 1.6921,-3.02399 0.82092,-1.14761 1.82612,-1.71724 3.01562,-1.71724 l 0.84605,0.1005 c 0.90469,0.33507 1.50782,0.9717 1.8345,1.93503 0.0754,0.4691 0.0419,0.8628 -0.1005,1.18111 l -0.54448,1.01359 -1.1895,1.87639 -1.3319,2.47113 c -0.65339,1.29002 -1.1141,2.86484 -1.39892,4.72448 0,1.06384 0.3937,1.77586 1.18112,2.13606 0.42722,0.20943 0.89631,0.31831 1.39053,0.31831 l 1.07223,-0.16752 c 1.39891,-0.85444 2.65542,-2.00204 3.76952,-3.43446 1.0806,-1.29002 2.2701,-2.57167 3.53499,-3.87005 1.90151,-1.90152 3.45121,-3.37583 4.6407,-4.41454 1.49944,-1.39891 3.10778,-2.73919 4.825,-4.0292 0.54449,-0.18429 1.10573,-0.27644 1.67535,-0.27644 0.95494,0 1.85963,0.35183 2.68893,1.03034 0.64501,0.65339 0.9717,1.45755 0.9717,2.42087 l -0.067,0.82093 -0.3602,1.93502 -0.20104,1.45755 m -34.35131,-22.9564 -1.17275,1.73398 -1.07222,1.40728 -0.97171,1.39893 -0.96331,1.39891 -0.76229,1.18949 -0.41884,0.80417 0.15917,0.27643 3.54335,-0.48585 1.77587,-0.16754 1.76749,0.16754 c 0.43559,0.67851 0.69526,1.19787 0.82091,1.55807 -0.21779,0.6115 -0.63662,1.0806 -1.23975,1.40729 l -1.88476,0.53611 -3.4931,0.81254 -3.48473,0.81255 c -0.54448,0.31831 -0.98007,0.80416 -1.29838,1.45755 l -0.37695,0.645 -0.53612,0.81255 c -0.5026,0.67851 -1.13086,1.88476 -1.91827,3.61875 -0.76228,1.71723 -1.37378,3.35069 -1.78424,4.8585 -0.19266,0.68689 -0.33507,1.37378 -0.44397,2.10256 -0.0921,0.71202 -0.16753,1.40729 -0.16753,2.05229 l 0.0754,1.1895 c 0,1.49944 0.64501,2.6638 1.97691,3.45121 l 1.28164,0 c 1.32352,0 2.53815,-0.3602 3.61036,-1.0806 0.8293,-0.56961 1.58321,-1.12247 2.28685,-1.65858 0.70365,-0.53612 1.23137,-0.99684 1.64184,-1.37379 0.38533,-0.36858 0.73715,-0.56124 1.02196,-0.56124 0.24292,0 0.5026,0.11725 0.79579,0.36858 0.2178,0.32668 0.26806,0.72877 0.16753,1.1895 -0.32668,1.07221 -0.96332,1.99365 -1.93502,2.74756 l -2.74756,2.10256 c -2.39575,1.77586 -4.85013,2.65541 -7.36315,2.65541 -3.46797,0 -5.65429,-1.79261 -6.5506,-5.38622 0,-0.54449 -0.0419,-0.92983 -0.10888,-1.18113 l 0,-0.8628 c 0,-1.25651 0.067,-2.34548 0.20943,-3.25855 0.1424,-0.91306 0.43558,-2.01878 0.8628,-3.30881 0.96332,-2.90672 2.06905,-5.63754 3.2753,-8.18406 -0.24293,-0.15078 -1.45755,0.0503 -3.65225,0.58637 l -4.08785,0.9717 -0.96333,0.10888 -1.18111,-0.10888 c -0.51099,-0.10887 -0.91306,-0.51097 -1.23976,-1.18112 l -0.10888,-0.81254 c 0,-0.43559 0.0335,-0.77904 0.10888,-1.04709 0.0586,-0.27643 0.31832,-0.63663 0.70365,-1.11411 0.98007,-1.03034 3.20828,-1.8345 6.71813,-2.41249 l 4.18837,-0.64501 2.47113,-0.43559 0.37695,-0.47747 1.07223,-1.46593 2.90672,-4.41453 c 1.10573,-1.81775 2.21983,-3.47635 3.33394,-4.95065 0.53611,-0.71203 0.92981,-1.223 1.18949,-1.51619 0.67014,-0.78741 1.3319,-1.39891 1.96016,-1.85126 0.61988,-0.44397 1.24813,-0.67014 1.85125,-0.67014 0.46073,0 0.89631,0.067 1.28164,0.2178 0.42722,0.31831 0.72877,0.62825 0.86281,0.91306 0.11725,1.15599 -0.12565,2.0858 -0.69527,2.79783 -0.40208,0.40208 -0.94657,1.16436 -1.67534,2.26172 m -30.5977,22.95643 -0.18429,1.8345 0,1.93502 0,3.19991 0.18429,7.1621 c 0,0.6115 -0.29318,0.98845 -0.90469,1.13087 l -0.78741,0.20941 -0.645,-0.15916 c -0.43559,-0.20942 -0.81255,-0.49423 -1.17275,-0.84605 -0.94656,-0.98008 -1.43241,-2.27847 -1.43241,-3.96219 l -0.17592,-2.4125 0,-2.01879 0,-2.47951 0,-1.13924 c 0,-0.46072 0.0503,-0.9717 0.17592,-1.54969 -0.1005,-0.32669 -0.25968,-0.48586 -0.48585,-0.48586 l -0.4691,0.15917 c -2.58842,2.15282 -4.84175,4.2135 -6.81028,6.18202 -2.60516,2.59679 -4.84175,4.62396 -6.70139,6.08151 -1.41566,1.21463 -3.01562,1.80937 -4.76636,1.80937 l -1.13085,-0.0503 -1.27326,-0.31833 c -1.18113,-0.32669 -2.16958,-1.03871 -2.95699,-2.14444 -0.39371,-0.4691 -0.70365,-0.9717 -0.9382,-1.53293 -0.22616,-0.55287 -0.33506,-1.1895 -0.33506,-1.90153 0,-1.65021 0.067,-2.98211 0.24292,-4.02082 0.15078,-1.03872 0.5026,-2.22822 1.04709,-3.56849 0.52774,-1.34028 1.05546,-2.53815 1.57483,-3.602 0.52773,-1.03871 1.0806,-2.06068 1.6921,-3.02399 0.82092,-1.14761 1.8345,-1.71724 3.01562,-1.71724 l 0.85443,0.1005 c 0.89631,0.33507 1.50781,0.9717 1.8345,1.93503 0.0754,0.4691 0.0251,0.8628 -0.10888,1.18111 l -0.53611,1.01359 -1.18949,1.87639 -1.34865,2.47113 c -0.63664,1.29002 -1.10574,2.86484 -1.39054,4.72448 0,1.06384 0.40208,1.77586 1.18112,2.13606 0.42721,0.20943 0.90468,0.31831 1.39053,0.31831 l 1.07223,-0.16752 c 1.41566,-0.85444 2.67217,-2.00204 3.78627,-3.43446 1.06385,-1.29002 2.23659,-2.57167 3.53499,-3.87005 1.89314,-1.90152 3.43445,-3.37583 4.62395,-4.41454 1.50781,-1.39891 3.11614,-2.73919 4.83338,-4.0292 0.53611,-0.18429 1.08897,-0.27644 1.65858,-0.27644 0.9717,0 1.87639,0.35183 2.69732,1.03034 0.63662,0.65339 0.96332,1.45755 0.96332,2.42087 l -0.0586,0.82093 -0.3602,1.93502 -0.20105,1.45755 m -33.3168,-10.34858 2.14445,0.0503 c 0.67851,0 1.19787,0.12565 1.54131,0.35181 0.31831,0.23455 0.56124,0.49424 0.66176,0.78741 l -0.30994,1.02196 c -0.23455,0.43559 -0.63663,0.69528 -1.23975,0.81255 -1.4408,0.31831 -2.98212,0.58637 -4.63233,0.79579 l -2.42088,0.32669 -2.36224,0.33507 c -1.75911,3.73601 -3.32556,7.5558 -4.74122,11.45936 -0.59475,1.84288 -1.26489,3.75278 -2.01041,5.75482 -0.72878,1.98528 -1.49944,3.97895 -2.27848,5.94747 -0.5026,0.67851 -1.18112,1.20625 -2.03555,1.56645 -0.65337,-0.18429 -1.3654,-0.56961 -2.16119,-1.18112 -0.50261,-0.46909 -0.75391,-1.18949 -0.75391,-2.16119 0.87119,-3.33394 2.10256,-6.83541 3.7109,-10.50443 l 2.37061,-5.28571 2.31198,-4.95065 c -0.99684,0.1005 -2.43763,0.44398 -4.30564,1.02196 -1.06385,0.31832 -2.0188,0.48585 -2.84809,0.48585 l -1.23976,-0.11725 c -0.49422,-0.1005 -1.03871,-0.47747 -1.65859,-1.13084 -0.11725,-0.85443 0.17592,-1.65023 0.8628,-2.36224 l 2.79783,-0.87119 2.89835,-0.8628 2.58004,-0.42721 3.39257,-0.48585 1.54969,-3.1329 1.55807,-2.83971 1.55808,-2.64704 1.75911,-2.74758 c 1.09735,-1.3654 2.14444,-2.48788 3.18315,-3.34231 0.36858,-0.2178 0.87956,-0.41046 1.55808,-0.59475 l 2.2701,-0.21779 c 1.06383,0.10888 2.07742,0.56962 3.03237,1.39054 0.93819,0.80416 1.54969,1.81775 1.79261,3.00724 0.11725,0.86281 -0.20941,1.4408 -0.96332,1.77587 l -0.5361,0.1005 c -0.38534,0 -0.8293,-0.20941 -1.2984,-0.63662 -0.4691,-0.42721 -1.05546,-0.76229 -1.75911,-0.96333 -0.68689,-0.11725 -1.3319,0.13403 -1.9434,0.74553 -1.21463,1.43242 -2.31198,2.94024 -3.2753,4.51506 l -1.34028,2.36224 -1.45755,2.79782 1.23975,0 1.13086,0 1.66697,0.0503 m -56.36198,34.8539 c -1.36541,2.73919 -3.18316,5.66268 -5.47839,8.78719 -2.12768,3.01562 -4.82498,5.26059 -8.11705,6.73489 -1.39891,0.53611 -3.20828,0.95495 -5.43648,1.24813 l -0.6869,0 -0.53612,0 c -1.37377,0 -2.74756,-0.26804 -4.14647,-0.76228 -0.7204,-0.40208 -1.0806,-0.9717 -1.0806,-1.73398 l 0.11725,-0.85442 c 0.2178,-0.7204 0.61987,-1.15599 1.23137,-1.2984 l 1.45755,-0.15915 0.64502,0.0586 0.64501,0.0503 0.58636,0 c 0.7204,0 1.45755,-0.067 2.20309,-0.21778 0.76227,-0.13403 1.52456,-0.37695 2.32035,-0.69528 2.14444,-0.8628 4.29726,-2.8062 6.45009,-5.85532 2.01041,-2.83134 3.8114,-5.84697 5.41973,-9.072 l 1.93503,-4.18837 1.7256,-4.07108 0.69527,-2.14445 0.42722,-1.34866 -1.78424,1.18112 -1.72561,1.03033 c -2.22822,1.61672 -4.84175,2.67219 -7.85738,3.17479 l -1.13922,0.1005 c -0.92145,0 -1.9099,-0.22616 -2.94024,-0.70363 -1.39054,-0.52774 -2.20308,-1.31515 -2.42088,-2.37062 l -0.20103,-2.42087 0.1424,-1.60834 c 0.64501,-2.83134 2.01878,-5.31084 4.09622,-7.43015 1.90151,-2.1277 4.09621,-3.97057 6.55898,-5.55377 1.4743,-0.96333 3.07426,-1.68373 4.79148,-2.15283 l 1.39892,-0.31831 1.51618,-0.10888 c 0.30994,0 0.67014,0.0168 1.06385,0.0502 0.3937,0.0419 0.81254,0.10888 1.23975,0.20943 0.41884,0 0.81255,-0.10888 1.12249,-0.35183 0.33506,-0.2513 0.83768,-0.46072 1.56645,-0.65338 0.9717,0.29318 1.71723,0.95495 2.26171,1.99366 l 0.69527,1.56645 c 0.10887,0.32669 0.19267,0.78741 0.27643,1.39891 -0.17591,2.04393 -0.59475,4.37265 -1.27326,6.97781 -0.66176,2.60517 -1.41566,5.16007 -2.27847,7.67309 l -1.39892,3.97894 c -0.0754,0.25969 -0.16752,0.56962 -0.29318,0.95495 -0.13403,0.37695 -0.26805,0.70365 -0.40208,0.98845 l -0.70365,1.83451 -1.44917,3.34231 -1.23975,2.73919 z m -7.39665,-15.84877 2.68055,-1.44917 c 0.74553,-0.42721 1.90989,-1.34866 3.48471,-2.7392 2.14445,-2.01041 3.22505,-3.85328 3.22505,-5.53701 l -0.11725,-0.9717 c -0.20942,-0.56124 -0.65338,-0.92144 -1.3319,-1.07222 l -1.93502,-0.11725 c -2.47114,0.51098 -4.63234,1.78425 -6.50034,3.82816 l -2.51302,3.11615 -0.91307,1.55807 -0.64501,1.65859 -0.16752,1.29839 c 0,0.92982 0.45233,1.39892 1.34865,1.39892 1.18111,-0.11725 2.3036,-0.4356 3.3842,-0.97171 m -34.53729,-9.33002 0.70365,0.0586 c 1.43242,0 3.024,-0.6115 4.78311,-1.8345 1.0806,-0.78741 2.38736,-1.1895 3.92869,-1.1895 1.03871,0 2.0858,0.16754 3.1664,0.49424 1.07222,0.31831 2.15282,0.92144 3.22504,1.81775 0.89631,0.79579 1.49943,1.75911 1.83451,2.90672 l 0.36857,2.73919 0.53612,3.76953 0,2.04392 0.0503,1.82613 -0.0503,1.07222 c -0.0921,0.56962 -0.60313,0.92981 -1.50782,1.07221 -0.88793,0.11725 -1.62508,-0.15915 -2.1947,-0.80416 -0.42722,-0.65338 -0.72878,-1.41566 -0.91307,-2.31197 l -0.5361,-4.41454 c 0,-0.5026 -0.14241,-1.13086 -0.36858,-1.88476 l -0.54448,-1.88443 c -0.4356,-1.36541 -1.31515,-2.0523 -2.63868,-2.0523 -0.6115,0 -1.15599,0.1005 -1.60834,0.26805 -2.05228,0.64502 -3.72763,1.35704 -5.05953,2.11094 -2.17795,1.3319 -3.90357,2.81459 -5.15169,4.47318 l -4.25538,5.38623 c -0.56962,0.67852 -1.26488,1.02197 -2.08581,1.02197 l -1.1895,-0.15917 c -0.93819,-0.2178 -1.39052,-0.7204 -1.39052,-1.50781 0,-0.28481 0.0838,-0.67851 0.25967,-1.17274 1.39891,-3.33393 2.63866,-6.45846 3.71089,-9.35681 l 1.49944,-4.41454 1.50781,-4.82498 c 0.11725,-0.76229 0.82929,-1.25652 2.15281,-1.51619 l 1.2984,0.16754 c 0.34344,0.1005 0.65339,0.56123 0.90469,1.39891 0.10887,0.42721 0.0419,1.09735 -0.20943,2.03554 l -0.48585,1.50781 -0.37695,1.3319 -0.17591,0.74552 c 0,0.51099 0.28481,0.86282 0.81254,1.0806 m -11.24826,-6.10695 -1.50782,1.93503 -1.5497,2.20307 c -0.79578,1.14762 -1.60832,2.59679 -2.446,4.33077 -0.84605,1.73398 -1.54132,3.68576 -2.07742,5.83021 l -0.69528,2.95699 -0.69526,2.89833 c -0.20942,0.85443 -0.7204,1.47432 -1.50781,1.82614 -0.42721,0.10888 -0.92144,0 -1.49944,-0.31832 -0.7204,-0.6115 -1.0806,-1.49105 -1.0806,-2.63867 l 0.10888,-2.99887 c 0.64501,-3.09101 1.41566,-6.00611 2.32872,-8.76205 0.92145,-2.76433 2.01043,-5.31085 3.25855,-7.63959 0.2178,-0.42721 0.49423,-0.93819 0.83768,-1.54131 0.34345,-0.578 0.68688,-1.1141 1.04708,-1.57483 0.56125,-0.78741 1.25652,-1.25651 2.04393,-1.39891 1.07222,0 1.92665,0.37695 2.58004,1.13924 0.3602,0.45234 0.69526,1.1141 1.02196,1.9769 l 0.0503,0.86281 c 0,0.42721 -0.067,0.73715 -0.21779,0.91306 m 7.31288,-12.61536 c -0.32669,0.54449 -1.02195,0.91306 -2.10255,1.13086 -0.84605,0 -1.57483,-0.30156 -2.14445,-0.91306 -0.42722,-0.60313 -0.73715,-1.38216 -0.91307,-2.35386 l -0.15915,-1.28164 c 0,-0.74553 0.19267,-1.38216 0.58637,-1.92665 0.54448,-0.73715 1.22301,-1.12248 2.0523,-1.12248 0.84605,0 1.56645,0.29318 2.13606,0.85443 0.46072,0.57799 0.81255,1.23137 1.02196,1.98527 l 0.11725,1.23139 c 0,0.92144 -0.20104,1.7256 -0.59475,2.39574 m -21.73085,-3.56094 -1.18112,1.73398 -1.0806,1.40728 -0.95494,1.39893 -0.98009,1.39891 -0.74552,1.18949 -0.43559,0.80417 0.16754,0.27643 3.53497,-0.48585 1.77586,-0.16754 1.78425,0.16754 c 0.41884,0.67851 0.69527,1.19787 0.80417,1.55807 -0.20942,0.6115 -0.62825,1.0806 -1.23975,1.40729 l -1.88477,0.53611 -3.4931,0.81254 -3.48472,0.81255 c -0.54449,0.31831 -0.96333,0.80416 -1.29839,1.45755 l -0.36857,0.645 -0.53612,0.81255 c -0.5026,0.67851 -1.14761,1.88476 -1.91827,3.61875 -0.76228,1.71723 -1.3654,3.35069 -1.79261,4.8585 -0.18429,0.68689 -0.3267,1.37378 -0.4356,2.10256 -0.1005,0.71202 -0.15915,1.40729 -0.15915,2.05229 l 0.0586,1.1895 c 0,1.49944 0.66176,2.6638 1.98529,3.45121 l 1.29001,0 c 1.32353,0 2.52978,-0.3602 3.60199,-1.0806 0.82092,-0.56961 1.58321,-1.12247 2.28685,-1.65858 0.69527,-0.53612 1.23137,-0.99684 1.63346,-1.37379 0.39371,-0.36858 0.73715,-0.56124 1.02196,-0.56124 0.24293,0 0.51937,0.11725 0.80417,0.36858 0.20942,0.32668 0.26806,0.72877 0.16753,1.1895 -0.32668,1.07221 -0.9717,1.99365 -1.93502,2.74756 l -2.73919,2.10256 c -2.40412,1.77586 -4.8585,2.65541 -7.37152,2.65541 -3.47634,0 -5.66267,-1.79261 -6.5506,-5.38622 0,-0.54449 -0.0419,-0.92983 -0.10888,-1.18113 l 0,-0.8628 c 0,-1.25651 0.067,-2.34548 0.2178,-3.25855 0.1424,-0.91306 0.42721,-2.01878 0.85443,-3.30881 0.96332,-2.90672 2.06067,-5.63754 3.2753,-8.18406 -0.24293,-0.15078 -1.46593,0.0503 -3.65225,0.58637 l -4.08785,0.9717 -0.96333,0.10888 -1.18111,-0.10888 c -0.50261,-0.10887 -0.91306,-0.51097 -1.23976,-1.18112 l -0.1005,-0.81254 c 0,-0.43559 0.0251,-0.77904 0.1005,-1.04709 0.0754,-0.27643 0.30993,-0.63663 0.69527,-1.11411 0.9717,-1.03034 3.21666,-1.8345 6.72651,-2.41249 l 4.18837,-0.64501 2.47951,-0.43559 0.36857,-0.47747 1.0806,-1.46593 2.89835,-4.41453 c 1.1141,-1.81775 2.21983,-3.47635 3.33394,-4.95065 0.53611,-0.71203 0.92981,-1.223 1.18111,-1.51619 0.67014,-0.78741 1.3319,-1.39891 1.96017,-1.85126 0.63662,-0.44397 1.2565,-0.67014 1.85125,-0.67014 0.47747,0 0.89631,0.067 1.2984,0.2178 0.43558,0.31831 0.72038,0.62825 0.85442,0.91306 0.11725,1.15599 -0.12565,2.0858 -0.69527,2.79783 -0.40208,0.40208 -0.95495,1.16436 -1.66697,2.26172 m -45.41445,22.28293 0.70365,0.0586 c 1.42404,0 3.03238,-0.6115 4.79149,-1.8345 1.07221,-0.78741 2.36224,-1.1895 3.91193,-1.1895 1.0471,0 2.10256,0.16754 3.17478,0.49424 1.08059,0.31831 2.15282,0.92144 3.23342,1.81775 0.89631,0.79579 1.49943,1.75911 1.82612,2.90672 l 0.37695,2.73919 0.52774,3.76953 0,2.04392 0.0586,1.82613 -0.0586,1.07222 c -0.1005,0.56962 -0.60313,0.92981 -1.49944,1.07221 -0.90469,0.11725 -1.63346,-0.15915 -2.20307,-0.80416 -0.44397,-0.65338 -0.73715,-1.41566 -0.91307,-2.31197 l -0.54448,-4.41454 c 0,-0.5026 -0.12565,-1.13086 -0.37695,-1.88476 l -0.52774,-1.88443 c -0.43559,-1.36541 -1.31515,-2.0523 -2.63868,-2.0523 -0.6115,0 -1.14761,0.1005 -1.60832,0.26805 -2.0523,0.64502 -3.72765,1.35704 -5.05118,2.11094 -2.18632,1.3319 -3.91192,2.81459 -5.16006,4.47318 l -4.25537,5.38623 c -0.56962,0.67852 -1.27327,1.02197 -2.09419,1.02197 l -1.18111,-0.15917 c -0.9382,-0.2178 -1.39892,-0.7204 -1.39892,-1.50781 0,-0.28481 0.0837,-0.67851 0.26805,-1.17274 1.39892,-3.33393 2.63868,-6.45846 3.7109,-9.35681 l 1.49943,-4.41454 1.50781,-4.82498 c 0.1005,-0.76229 0.8293,-1.25652 2.14445,-1.51619 l 1.29839,0.16754 c 0.36857,0.1005 0.65339,0.56123 0.91306,1.39891 0.10888,0.42721 0.0335,1.09735 -0.20941,2.03554 l -0.48585,1.50781 -0.38534,1.3319 -0.15077,0.74552 c 0,0.51099 0.26805,0.86282 0.79578,1.0806 m -16.94612,2.57385 c -2.11094,1.7256 -4.43129,3.09939 -6.98619,4.12973 -2.39575,0.92981 -4.85012,1.39891 -7.35477,1.39891 -0.61988,0.49423 -0.92144,1.0806 -0.92144,1.75911 0,0.38534 0.0838,0.74554 0.2178,1.06385 0.2848,0.53612 0.67014,0.95495 1.15599,1.23975 0.47747,0.27644 1.09735,0.41884 1.85125,0.41884 l 0.70365,0 0.53611,0 c 0.24292,-0.0754 0.51097,-0.10887 0.77904,-0.13402 0.26805,-0.0168 0.49422,-0.0419 0.69526,-0.0754 0.19266,-0.0335 0.52774,-0.14241 0.99684,-0.30994 1.28163,-0.31832 2.48788,-0.6869 3.60198,-1.10573 l 1.39054,-0.57799 1.72561,-0.61988 c 0.78742,-0.11725 1.32352,0.0168 1.60833,0.41884 l 0.11725,0.57799 c 0,0.5026 -0.30994,0.94657 -0.92981,1.34027 -3.92869,2.46277 -8.01654,3.68577 -12.24678,3.68577 l -1.01359,0 -1.03034,0 c -1.07222,-0.1005 -2.18632,-0.47748 -3.33393,-1.13087 -1.0806,-0.54448 -1.84289,-1.42403 -2.3036,-2.63866 l -0.4356,-1.25651 -0.1005,-1.5497 c 0,-0.645 0.0251,-1.10573 0.1005,-1.39891 0.0335,-0.40208 0.20105,-0.8963 0.47747,-1.50782 0.87119,-2.6973 2.55491,-5.19356 5.05955,-7.48878 2.51302,-2.31198 5.05954,-4.17999 7.63958,-5.61242 l 3.21666,-1.40728 1.99366,-0.53612 1.60834,-0.15916 c 1.60833,0 3.20829,0.33508 4.77473,1.01359 1.08897,0.54449 1.62508,1.44917 1.62508,2.73919 l -0.21778,1.56645 c -0.49423,1.34866 -1.23977,2.49627 -2.20309,3.41771 l -1.50781,1.49942 -1.29002,1.23977 z m -2.15281,-3.9957 0.59473,-0.69526 0.9717,-1.18112 c 0.20943,-0.2178 0.33508,-0.43559 0.37697,-0.69527 0,-0.28481 -0.51937,-0.4356 -1.56645,-0.4356 l -1.71724,0.59475 -0.8628,0.31832 -0.7539,0.3267 c -0.50261,0.28481 -1.00521,0.61987 -1.51619,0.96332 -0.52774,0.36858 -1.06385,0.77065 -1.59996,1.23975 -0.99683,0.82093 -1.75074,1.78425 -2.25334,2.84809 -0.17591,0.39371 -0.10887,0.6115 0.2178,0.64501 l 0.8628,0 c 2.60516,-0.8628 5.03441,-2.1612 7.24588,-3.92869 m -17.04666,-4.07443 -2.14443,2.85646 -1.97692,2.42087 -2.14443,2.50464 -2.35387,2.47114 c -0.90468,0.98007 -1.82612,1.91827 -2.79782,2.84809 -0.96333,0.91306 -2.02718,1.85126 -3.21666,2.82296 -2.13608,1.80936 -4.40617,3.48471 -6.80192,5.02604 -0.63662,0.42721 -1.4408,0.7539 -2.40411,0.9717 l -0.64501,0 c -0.71203,0 -1.32353,-0.23455 -1.81775,-0.70365 -1.39891,-1.29002 -2.09419,-2.9151 -2.09419,-4.89202 l 0,-2.85646 0,-1.29001 0,-1.49944 0,-2.10256 0.27644,-3.00724 0,-1.78425 c 0,-0.42721 0.0586,-0.99682 0.15915,-1.6921 0.10887,-0.70364 0.19267,-1.28164 0.26806,-1.75074 0.2178,-1.96852 1.13924,-3.33393 2.78945,-4.09621 0.43559,-0.10887 1.01359,-0.19266 1.7256,-0.25969 l 1.18113,0.15079 c 0.44396,0.0754 0.65338,0.65339 0.65338,1.7256 l -0.42721,3.98733 -0.22617,1.61671 c 0,0.3937 -0.12565,1.04709 -0.3602,1.98529 l -0.3602,2.79782 0,3.2753 0,2.06068 0.15078,1.17273 c 0.10888,0.42722 0.3602,0.59475 0.7539,0.49424 1.14762,-0.22617 2.93185,-1.53295 5.3276,-3.94545 l 3.07427,-3.12451 2.04391,-2.1612 3.12452,-3.61036 1.39892,-1.71724 1.55807,-2.00204 1.77586,-1.99366 c 0.69528,-0.68689 1.51619,-1.02196 2.48789,-1.02196 0.85443,0.10887 1.5497,0.42721 2.10256,0.9717 l 0.15078,0.86281 c 0,0.32669 -0.0838,0.645 -0.26805,0.9717 l -0.96333,1.51619 m -53.53902,5.49596 0.69527,0.0586 c 1.43242,0 3.024,-0.6115 4.78312,-1.8345 1.07221,-0.78741 2.38736,-1.1895 3.9203,-1.1895 1.0471,0 2.10256,0.16754 3.17478,0.49424 1.0806,0.31831 2.15282,0.92144 3.22504,1.81775 0.88794,0.79579 1.49944,1.75911 1.82613,2.90673 l 0.37695,2.73918 0.53611,3.76953 0,2.04392 0.0586,1.82613 -0.0586,1.07222 c -0.1005,0.56962 -0.60313,0.92982 -1.49943,1.07222 -0.88793,0.11725 -1.62508,-0.15915 -2.20308,-0.80417 -0.43559,-0.65338 -0.74553,-1.41566 -0.92144,-2.31197 l -0.52774,-4.4142 c 0,-0.5026 -0.13402,-1.13086 -0.37695,-1.88476 l -0.54449,-1.88477 c -0.42721,-1.36541 -1.30677,-2.0523 -2.63028,-2.0523 -0.60313,0 -1.14762,0.1005 -1.60834,0.26805 -2.0523,0.64502 -3.7444,1.35704 -5.05955,2.11094 -2.17794,1.3319 -3.90355,2.81459 -5.16844,4.47318 l -4.23862,5.38623 c -0.56962,0.67852 -1.26489,1.02197 -2.0858,1.02197 l -1.1895,-0.15917 c -0.92982,-0.2178 -1.39054,-0.7204 -1.39054,-1.50781 0,-0.28481 0.0837,-0.67851 0.26806,-1.17274 1.39054,-3.33393 2.63029,-6.45846 3.70251,-9.35681 l 1.50782,-4.41454 1.49942,-4.82498 c 0.10888,-0.76229 0.82093,-1.25652 2.15283,-1.51619 l 1.29001,0.16754 c 0.3602,0.1005 0.66176,0.56123 0.91306,1.39891 0.11725,0.42721 0.0335,1.09735 -0.21779,2.03554 l -0.47747,1.50781 -0.37695,1.3319 -0.16754,0.74552 c 0,0.51099 0.26805,0.86282 0.81254,1.0806 m -5.45409,-21.81583 c -3.23341,6.34118 -6.19877,12.78288 -8.89609,19.34187 l -2.52138,6.50871 -2.49628,6.70139 -2.27846,6.67625 c -0.2178,0.19266 -0.51936,0.36858 -0.90469,0.5026 -0.26806,0.1005 -0.51099,0 -0.76229,-0.32669 -1.06383,-1.07222 -1.59995,-2.37061 -1.59995,-3.90356 0,-1.56644 0.23455,-3.10776 0.69527,-4.6072 l 2.58003,-8.58614 c 0.79579,-2.83133 1.66697,-5.5454 2.63868,-8.12543 l 3.22504,-8.92122 c 0.53611,-1.42403 1.10572,-2.87321 1.71722,-4.34752 0.6115,-1.46593 1.29001,-2.96536 2.04393,-4.51505 0.3602,-0.71203 0.82091,-1.35704 1.39891,-1.92665 0.53611,-0.65339 1.21462,-1.03034 2.04392,-1.13086 0.5026,0 0.90469,0.0754 1.19787,0.2178 0.31832,0.1424 0.65338,0.4691 1.03033,0.98845 0.36859,0.51936 0.76229,1.223 1.16438,2.11931 l 0.0921,0.70365 0.11725,0.7539 c 0,0.53611 -0.16754,1.15599 -0.48585,1.87639"
       id="path328"
       style="fill:#ffffff;fill-opacity:1;fill-rule:nonzero;stroke:none" />
    <path
       d="M 247.59784,408.12105 C 76.98901,382.58041 155.70512,526.31669 385.03482,601.73238 274.93111,554.16094 199.17197,507.14237 177.78618,461.02009 c -15.99117,-38.71724 7.271,-56.35862 69.81166,-52.89904"
       id="path332"
       style="fill:#231f20;fill-opacity:1;fill-rule:evenodd;stroke:none" />
    <path
       d="m 371.58646,395.38359 c -13.9305,6.88568 -28.45701,11.03634 -43.59375,12.46875 l -0.6875,5.21875 14.3125,-0.4375 c 7.29613,-0.57799 8.97621,3.92101 7.9375,11.125 l -22.9375,143.46875 c -4.48155,19.80257 1.86746,28.44635 16.59375,31.5625 52.19539,8.61965 93.92621,-58.16111 88.0625,-118.75 -2.63029,-14.2907 -8.69993,-20.29852 -23.59375,-16.5625 -19.10731,5.54539 -36.83192,21.22884 -53.59375,43.8125 l 20.90625,-108.96875 -3.40625,-2.9375 z m 137.53125,65.15625 c -6.51379,-0.0515 -13.19097,1.24559 -20.0625,3.90625 -42.72132,17.57438 -51.99627,63.82274 -6.46875,71.09375 32.26716,1.06384 35.10946,14.2057 30.46875,29.59375 -5.05954,16.75345 -25.47743,30.70845 -56.78125,12.1875 l 0,-23.09375 -6.21875,0 c -0.85442,13.4614 -2.65483,25.3941 -5.34375,35.78125 19.76908,10.67195 38.34277,10.64621 57.03125,-0.6875 35.47545,-22.25697 49.2194,-68.46346 -6,-71.09375 -59.69256,-4.17998 -8.132,-76.45 27,-34.625 l 0.25,14.53125 6,0 4.375,-30.6875 c -7.78878,-4.54699 -15.87513,-6.84001 -24.25,-6.90625 z m -219.46875,5.65625 c -3.33309,-0.0103 -7.71768,1.51151 -12.75,4.71875 -10.67195,7.46368 -20.99527,15.3875 -31.15625,22.625 l 2.09375,5.0625 16.3125,-10.65625 c 5.24383,-3.37581 13.35043,-4.89907 8.84375,11.8125 -9.87616,42.16845 -20.55704,75.46172 -20.40625,92.5 0.17591,14.9022 14.88622,10.97369 34.4375,-3.25 3.12452,-2.3036 4.87717,-3.87075 6.46875,-5.09375 2.80621,-2.1612 4.37031,-3.63968 7.6875,-6.4375 l 2.59375,-2.3125 c -0.94657,-1.35704 -1.88881,-2.70546 -2.84375,-4.0625 l -14.5625,10.15625 c -12.69912,6.53385 -14.01853,1.10967 -10.84375,-13.625 l 20.53125,-89.78125 c 1.82194,-7.4134 -0.8511,-11.63915 -6.40625,-11.65625 z m 109.46875,12.40625 c 9.94213,-0.0806 15.87031,9.63068 13.15625,30.25 -1.49105,11.16618 -3.9003,21.4112 -6.65625,31.3125 -10.16098,38.23976 -30.46595,53.5523 -53.125,45.46875 -11.9871,-6.67625 -9.09895,-24.42021 -2.0625,-53.09375 2.14445,-8.48562 5.47327,-16.96025 11.4375,-25.4375 13.34832,-18.54608 27.30787,-28.41937 37.25,-28.5 z"
       id="path336"
       style="fill:#ffffff;fill-opacity:1;fill-rule:evenodd;stroke:none" />
    <path
       d="m 262.59302,416.10994 c 0,14.85194 12.03736,26.8893 26.8893,26.8893 l 0,0 c 14.84356,0 26.88093,-12.03736 26.88093,-26.8893 l 0,0 c 0,-14.85195 -12.03736,-26.88929 -26.88093,-26.88929 l 0,0 c -14.85194,0 -26.8893,12.03734 -26.8893,26.88929"
       id="path378"
       style="fill:url(#radialGradient3704-4);stroke:none" />
  </g>
</svg>
